<?xml version="1.0" encoding="UTF-8"?><svg id="Layer_1" xmlns="http://www.w3.org/2000/svg" xmlns:xlink="http://www.w3.org/1999/xlink" viewBox="0 0 124.45 95.24"><defs><style>.cls-1{fill:url(#linear-gradient-8);}.cls-2{fill:url(#linear-gradient-7);}.cls-3{fill:url(#linear-gradient-5);}.cls-4{fill:url(#linear-gradient-6);}.cls-5{fill:url(#linear-gradient-9);}.cls-6{fill:url(#linear-gradient-4);}.cls-7{fill:url(#linear-gradient-3);}.cls-8{fill:url(#linear-gradient-2);}.cls-9{fill:#231f20;}.cls-10{fill:url(#linear-gradient);}.cls-11{fill:url(#linear-gradient-10);}.cls-12{fill:url(#linear-gradient-11);}.cls-13{fill:url(#linear-gradient-12);}.cls-14{fill:url(#linear-gradient-13);}.cls-15{fill:url(#linear-gradient-14);}.cls-16{fill:url(#linear-gradient-15);}</style><linearGradient id="linear-gradient" x1="-2.29" y1="57.65" x2="118.83" y2="267.3" gradientUnits="userSpaceOnUse"><stop offset=".06" stop-color="#d71d49"/><stop offset=".23" stop-color="#f15925"/></linearGradient><linearGradient id="linear-gradient-2" x1="5.95" y1="52.88" x2="127.08" y2="262.54" xlink:href="#linear-gradient"/><linearGradient id="linear-gradient-3" x1="16.84" y1="46.59" x2="137.96" y2="256.25" xlink:href="#linear-gradient"/><linearGradient id="linear-gradient-4" x1="28.14" y1="40.07" x2="149.26" y2="249.72" xlink:href="#linear-gradient"/><linearGradient id="linear-gradient-5" x1="3.66" y1="74.3" x2="7.26" y2="120.89" xlink:href="#linear-gradient"/><linearGradient id="linear-gradient-6" x1="18.65" y1="73.15" x2="22.25" y2="119.74" xlink:href="#linear-gradient"/><linearGradient id="linear-gradient-7" x1="33.49" y1="72" x2="37.09" y2="118.59" xlink:href="#linear-gradient"/><linearGradient id="linear-gradient-8" x1="47.55" y1="70.92" x2="51.15" y2="117.5" xlink:href="#linear-gradient"/><linearGradient id="linear-gradient-9" x1="62.55" y1="69.76" x2="66.15" y2="116.35" xlink:href="#linear-gradient"/><linearGradient id="linear-gradient-10" x1="74.15" y1="68.86" x2="77.75" y2="115.45" xlink:href="#linear-gradient"/><linearGradient id="linear-gradient-11" x1="87.05" y1="67.86" x2="90.65" y2="114.45" xlink:href="#linear-gradient"/><linearGradient id="linear-gradient-12" x1="102.98" y1="66.64" x2="106.57" y2="113.23" xlink:href="#linear-gradient"/><linearGradient id="linear-gradient-13" x1="117.49" y1="65.51" x2="121.09" y2="112.1" xlink:href="#linear-gradient"/><linearGradient id="linear-gradient-14" x1="64.94" y1="-17.41" x2="146.43" y2="119.64" gradientUnits="userSpaceOnUse"><stop offset=".13" stop-color="#d71d49"/><stop offset=".29" stop-color="#f15925"/></linearGradient><linearGradient id="linear-gradient-15" x1="31.21" y1="2.64" x2="112.7" y2="139.69" xlink:href="#linear-gradient-14"/></defs><path class="cls-9" d="M63.76,67.59c3.49,0,5.59,2.18,5.59,5.16s-1.88,5.04-5.61,5.04h-3.23v4.32h-2.78v-14.52h6.03ZM63.92,75.33c1.67,0,2.66-1.15,2.66-2.58s-1.03-2.7-2.76-2.7h-3.31v5.28h3.41Z"/><path class="cls-9" d="M73.94,70.05v3.63h7.02v2.46h-7.02v3.51h7.91v2.46h-10.67v-14.52h10.67v2.46h-7.91Z"/><path class="cls-9" d="M82.96,82.11l7.42-14.52h.28l7.42,14.52h-3.01l-1.13-2.28h-6.84l-1.11,2.28h-3.01ZM88.44,77.41h4.15l-2.06-4.38-2.08,4.38Z"/><path class="cls-9" d="M108.65,82.11l-6.09-6.6v6.6h-2.78v-14.52h2.78v7.38l5.77-7.38h3.41l-5.97,7.52,6.54,7h-3.67Z"/><path class="cls-9" d="M114.12,78.09c.99.79,3.09,1.75,4.78,1.75,2.08,0,2.78-.83,2.78-1.73,0-1.37-1.57-1.69-3.29-2.02-1.71-.34-5.53-.87-5.53-4.38s3.07-4.32,5.51-4.32,3.95.75,5.41,1.86l-1.53,2.1c-1.19-.81-2.62-1.39-4.18-1.39-1.09,0-2.44.34-2.44,1.47,0,1.33,1.84,1.69,3.37,2,1.75.36,5.45.63,5.45,4.52,0,2.99-2.24,4.44-5.51,4.44-3.01,0-4.68-1.07-6.21-2.2l1.39-2.1Z"/><path class="cls-10" d="M11.09,70.01h-4.15v12.06h-2.78v-12.06H0v-2.46h11.09v2.46Z"/><path class="cls-8" d="M16.05,70.01v3.63h7.02v2.46h-7.02v3.51h7.91v2.46h-10.67v-14.52h10.67v2.46h-7.91Z"/><path class="cls-7" d="M33.16,69.9c-2.62,0-4.74,2.24-4.74,4.94s2.12,4.94,4.74,4.94c1.94,0,3.23-1.03,3.97-2.3l2.6,1.05c-1.07,2.26-3.45,3.83-6.56,3.83-4.15,0-7.52-3.25-7.52-7.52s3.37-7.52,7.52-7.52c3.23,0,5.53,1.77,6.56,3.85l-2.6,1.05c-.73-1.31-2.14-2.32-3.97-2.32Z"/><path class="cls-6" d="M54.56,67.55v14.52h-2.76v-5.79h-7.18v5.79h-2.76v-14.52h2.76v6.27h7.18v-6.27h2.76Z"/><path class="cls-3" d="M5.12,95.24c-.64,0-1.19-.09-1.67-.3-.47-.21-.92-.52-1.35-.94-.04-.04-.08-.09-.11-.14-.03-.05-.04-.11-.04-.18,0-.1.04-.19.12-.28.08-.08.17-.13.27-.13s.19.04.28.13c.33.35.7.62,1.12.81.42.19.86.28,1.34.28.4,0,.76-.06,1.08-.19s.57-.31.75-.54c.18-.24.28-.51.28-.82,0-.39-.12-.7-.32-.93-.21-.24-.48-.43-.83-.59-.34-.16-.73-.3-1.15-.42-.34-.11-.68-.23-.99-.36-.32-.13-.59-.29-.83-.48-.24-.19-.43-.42-.56-.7-.13-.28-.2-.61-.2-1,0-.45.12-.84.35-1.19.24-.35.57-.62,1-.82.43-.2.94-.3,1.51-.3.5,0,.97.08,1.43.25.46.17.82.42,1.09.74.13.13.19.26.19.37,0,.09-.04.18-.13.26-.08.08-.18.12-.28.12-.08,0-.16-.03-.21-.09-.14-.18-.32-.33-.54-.47-.22-.14-.46-.25-.73-.32-.26-.08-.54-.11-.83-.11-.4,0-.75.06-1.07.18-.32.12-.56.3-.74.52-.18.23-.27.5-.27.83,0,.35.1.64.3.86.2.22.47.41.79.56.33.15.68.28,1.05.41.36.1.71.22,1.04.35.33.13.63.29.88.49.26.19.46.44.61.73.15.29.22.66.22,1.11s-.12.82-.37,1.16c-.24.34-.58.62-1,.82-.42.2-.92.31-1.5.32Z"/><path class="cls-4" d="M24.24,90.69c0,.66-.1,1.27-.31,1.82-.21.55-.5,1.03-.88,1.44-.38.41-.83.72-1.34.95s-1.08.33-1.7.33-1.19-.11-1.7-.33c-.51-.22-.96-.54-1.34-.95-.38-.41-.67-.89-.88-1.44-.21-.55-.32-1.16-.32-1.82s.11-1.27.32-1.82c.21-.55.5-1.03.88-1.44.38-.41.82-.72,1.34-.95.51-.22,1.08-.33,1.7-.33s1.18.11,1.7.33c.52.22.97.54,1.34.95.38.41.67.89.88,1.44.21.55.31,1.16.31,1.82ZM23.43,90.69c0-.75-.15-1.41-.44-1.97-.29-.57-.7-1.01-1.2-1.33-.51-.32-1.1-.48-1.77-.48s-1.26.16-1.77.48c-.52.32-.92.76-1.21,1.33-.29.57-.44,1.23-.44,1.97s.15,1.41.44,1.97c.29.57.69,1.01,1.21,1.33.52.32,1.11.48,1.77.48s1.26-.16,1.77-.48c.51-.32.91-.76,1.2-1.33.29-.57.44-1.23.44-1.97Z"/><path class="cls-2" d="M37.49,94.37c.11,0,.2.04.28.11.08.07.11.16.11.26,0,.11-.04.2-.11.27-.08.07-.17.11-.28.11h-4.49c-.11,0-.2-.04-.27-.11-.07-.08-.11-.16-.11-.26v-8.07c0-.1.04-.19.11-.26.08-.08.17-.11.29-.11.1,0,.19.04.27.11.08.08.12.16.12.26v7.92l-.24-.21h4.31Z"/><path class="cls-1" d="M51.91,86.28c.11,0,.2.04.27.11.07.08.11.16.11.26v5.22c0,.62-.15,1.19-.44,1.69-.29.5-.69.91-1.19,1.2-.5.3-1.06.45-1.68.45s-1.18-.15-1.68-.45c-.5-.3-.9-.7-1.19-1.2-.29-.5-.44-1.07-.44-1.69v-5.22c0-.1.04-.19.11-.26.07-.08.17-.11.3-.11.1,0,.19.04.26.11.08.08.11.16.11.26v5.22c0,.49.12.93.35,1.31.23.39.54.7.93.93.39.23.81.35,1.26.35s.89-.12,1.27-.35c.39-.23.7-.54.93-.93.24-.39.35-.82.35-1.31v-5.22c0-.1.03-.19.1-.26.07-.08.16-.11.26-.11Z"/><path class="cls-5" d="M60.85,87c-.1,0-.19-.03-.26-.1-.08-.07-.11-.15-.11-.25,0-.11.04-.2.11-.27.08-.07.16-.1.26-.1h5.99c.11,0,.2.03.28.1.08.07.11.16.11.27s-.04.2-.11.26c-.08.06-.17.09-.28.09h-5.99ZM63.85,95.11c-.12,0-.21-.04-.29-.11s-.11-.16-.11-.26v-8.04h.79v8.04c0,.1-.04.19-.11.26-.08.08-.17.11-.28.11Z"/><path class="cls-11" d="M76.23,94.72c0,.11-.05.2-.13.28-.08.08-.17.11-.27.11-.13,0-.22-.04-.29-.11-.07-.08-.1-.17-.1-.28v-8.05c0-.11.04-.2.11-.28s.17-.11.29-.11c.1,0,.19.04.27.11.08.08.12.17.12.28v8.05Z"/><path class="cls-12" d="M93.05,90.69c0,.66-.1,1.27-.31,1.82-.21.55-.5,1.03-.88,1.44-.38.41-.83.72-1.34.95s-1.08.33-1.7.33-1.19-.11-1.7-.33c-.51-.22-.96-.54-1.34-.95-.38-.41-.67-.89-.88-1.44-.21-.55-.32-1.16-.32-1.82s.11-1.27.32-1.82c.21-.55.5-1.03.88-1.44.38-.41.82-.72,1.34-.95.51-.22,1.08-.33,1.7-.33s1.18.11,1.7.33c.52.22.97.54,1.34.95.38.41.67.89.88,1.44.21.55.31,1.16.31,1.82ZM92.24,90.69c0-.75-.15-1.41-.44-1.97-.29-.57-.7-1.01-1.2-1.33-.51-.32-1.1-.48-1.77-.48s-1.26.16-1.77.48c-.52.32-.92.76-1.21,1.33-.29.57-.44,1.23-.44,1.97s.15,1.41.44,1.97c.29.57.69,1.01,1.21,1.33.52.32,1.11.48,1.77.48s1.26-.16,1.77-.48c.51-.32.91-.76,1.2-1.33.29-.57.44-1.23.44-1.97Z"/><path class="cls-13" d="M107.89,86.28c.11,0,.2.03.26.1.06.07.09.15.09.25v8.07c0,.13-.04.23-.12.3-.08.07-.17.11-.27.11-.06,0-.12-.01-.17-.03-.05-.02-.1-.05-.13-.09l-5.63-7.57.21-.13v7.48c0,.09-.03.17-.1.24-.07.07-.15.1-.25.1-.11,0-.2-.03-.26-.1-.06-.07-.09-.15-.09-.24v-8.11c0-.12.04-.21.11-.28.07-.07.16-.1.26-.1.05,0,.11.01.16.03.06.02.11.06.14.11l5.56,7.49-.13.23v-7.51c0-.1.03-.18.1-.25.07-.07.15-.1.25-.1Z"/><path class="cls-14" d="M119.63,95.24c-.64,0-1.19-.09-1.67-.3-.47-.21-.92-.52-1.35-.94-.04-.04-.08-.09-.11-.14-.03-.05-.04-.11-.04-.18,0-.1.04-.19.12-.28.08-.08.17-.13.27-.13s.19.04.28.13c.33.35.7.62,1.12.81.42.19.86.28,1.34.28.4,0,.76-.06,1.08-.19s.57-.31.75-.54c.18-.24.28-.51.28-.82,0-.39-.12-.7-.32-.93-.21-.24-.48-.43-.83-.59-.34-.16-.73-.3-1.15-.42-.34-.11-.68-.23-.99-.36-.32-.13-.59-.29-.83-.48-.24-.19-.43-.42-.56-.7-.13-.28-.2-.61-.2-1,0-.45.12-.84.35-1.19.24-.35.57-.62,1-.82.43-.2.94-.3,1.51-.3.5,0,.97.08,1.43.25.46.17.82.42,1.09.74.13.13.19.26.19.37,0,.09-.04.18-.13.26-.08.08-.18.12-.28.12-.08,0-.16-.03-.21-.09-.14-.18-.32-.33-.54-.47-.22-.14-.46-.25-.73-.32-.27-.08-.54-.11-.83-.11-.4,0-.75.06-1.07.18-.32.12-.56.3-.74.52-.18.23-.27.5-.27.83,0,.35.1.64.3.86.2.22.47.41.79.56.33.15.68.28,1.05.41.36.1.71.22,1.04.35.33.13.63.29.88.49.26.19.46.44.61.73.15.29.22.66.22,1.11s-.12.82-.37,1.16c-.24.34-.58.62-1,.82-.42.2-.92.31-1.5.32Z"/><rect class="cls-15" x="97.89" y="42.9" width="14.33" height="14.33" rx="7.17" ry="7.17"/><path class="cls-16" d="M98.02,35.74c0,1.98-.8,3.77-2.1,5.07-1.3,1.3-3.09,2.1-5.07,2.1,0,0-.02,0-.03,0-1.72,0-3.38.57-4.59,1.79l-.57.58c-1.33,1.34-1.92,3.03-1.91,4.77,0,0,0,.02,0,.03,0,1.98-.8,3.77-2.1,5.07-2,2-5.17,2.82-8.39,1.35-1.38-.63-2.49-1.76-3.11-3.14-.51-1.13-.73-2.25-.73-3.32.01-1.72-.56-3.39-1.77-4.61l-.58-.59c-1.23-1.24-2.91-1.93-4.65-1.92h-.07s-.02,0-.03,0c-1.73,0-3.41.58-4.63,1.81l-.66.66c-1.23,1.24-1.82,2.93-1.81,4.67,0,0,0,.02,0,.03,0,1.98-.8,3.77-2.1,5.07-2.01,2.01-5.22,2.84-8.47,1.31-1.3-.61-2.36-1.68-2.97-2.98-1.52-3.25-.7-6.45,1.31-8.47,1.3-1.3,3.09-2.1,5.07-2.1,0,0,.02,0,.03,0,1.72,0,3.38-.58,4.6-1.79l.6-.61c1.33-1.33,1.91-3.01,1.9-4.74,0,0,0-.02,0-.03s0-.02,0-.03c0-1.73-.58-3.41-1.79-4.63l-.71-.72c-1.21-1.22-2.88-1.8-4.6-1.79,0,0-.02,0-.03,0h-.02c-1.75,0-3.42.69-4.66,1.93l-.65.65c-1.2,1.21-1.78,2.86-1.77,4.56,0,0,0,.02,0,.03,0,1.98-.8,3.77-2.1,5.07-1.3,1.3-3.09,2.1-5.07,2.1h-.05c-1.74,0-3.42.68-4.65,1.92l-.57.57c-1.23,1.23-1.81,2.92-1.81,4.65,0,0,0,.02,0,.03,0,1.98-.8,3.77-2.1,5.07-2.01,2.01-5.22,2.84-8.47,1.31-1.3-.61-2.37-1.68-2.98-2.98-1.52-3.25-.7-6.46,1.31-8.47,1.3-1.3,3.09-2.1,5.07-2.1,0,0,.02,0,.03,0,1.72,0,3.4-.58,4.61-1.8l.6-.6c1.25-1.25,1.84-2.97,1.84-4.74,0,0,0-.02,0-.03,0-1.98.8-3.77,2.1-5.07,1.3-1.3,3.09-2.1,5.07-2.1,0,0,.02,0,.03,0,1.76,0,3.46-.59,4.7-1.83l.52-.52c1.26-1.27,1.86-3,1.85-4.79,0,0,0-.02,0-.03,0-1.98.8-3.77,2.1-5.07,1.3-1.3,3.09-2.1,5.07-2.1,0,0,.02,0,.03,0,1.77,0,3.5-.59,4.75-1.85l.55-.55c1.23-1.23,1.81-2.92,1.81-4.65,0,0,0-.02,0-.03,0-1.98.8-3.77,2.1-5.07,1.3-1.3,3.09-2.1,5.07-2.1s3.77.8,5.07,2.1c1.3,1.3,2.1,3.09,2.1,5.07s-.8,3.77-2.1,5.07c-1.3,1.3-3.09,2.1-5.07,2.1,0,0-.02,0-.03,0-1.72,0-3.4.58-4.61,1.8l-.58.58c-1.23,1.23-1.92,2.9-1.91,4.64v.05s0,.02,0,.03c0,1.74.58,3.44,1.81,4.67l.66.66c1.22,1.23,2.9,1.81,4.64,1.81,0,0,.02,0,.03,0h.07c1.75,0,3.42-.68,4.65-1.92l.55-.55c1.23-1.24,1.81-2.93,1.81-4.67,0,0,0-.02,0-.03,0-1.98.8-3.77,2.1-5.07,1.3-1.3,3.09-2.1,5.07-2.1s3.77.8,5.07,2.1c1.3,1.3,2.1,3.09,2.1,5.07s-.8,3.77-2.1,5.07c-1.3,1.3-3.09,2.1-5.07,2.1,0,0-.02,0-.03,0-1.72,0-3.38.58-4.59,1.79l-.63.64c-1.24,1.25-1.83,2.95-1.82,4.71,0,0,0,.02,0,.03s0,.02,0,.03c0,1.76.58,3.46,1.82,4.71l.63.64c1.21,1.22,2.88,1.8,4.6,1.79,0,0,.02,0,.03,0s.02,0,.03,0c1.72,0,3.38-.58,4.6-1.79l.57-.57c1.33-1.34,1.92-3.03,1.91-4.77,0,0,0-.02,0-.03,0-1.98.8-3.77,2.1-5.07,1.3-1.3,3.09-2.1,5.07-2.1s3.77.8,5.07,2.1c1.3,1.3,2.1,3.09,2.1,5.07Z"/></svg>